<svg xmlns="http://www.w3.org/2000/svg" fill="none" viewBox="0 0 605 108" id="logo-dynamic-svg"><rect width="64" height="14" x="68" y="44" fill="#000" rx="7" transform="rotate(90 68 44)"/><rect width="72" height="14" x="31" y="35" fill="#000" rx="7" transform="rotate(90 31 35)"/><rect width="72" height="14" x="14" y="13" fill="#000" rx="7" transform="rotate(90 14 13)"/><rect width="92" height="14" x="50" fill="#000" rx="7" transform="rotate(90 50 0)"/><rect width="68" height="14" x="88" y="18" fill="#000" rx="7" transform="rotate(90 88 18)"/><rect width="100" height="14" x="106" y="2" fill="#000" rx="7" transform="rotate(90 106 2)"/><path fill="#000" d="M150.48 36.77q6.21 0 10.62 3.06 4.41 2.97 6.84 8.55t2.43 13.14q0 7.65-2.34 13.32t-6.75 8.73q-4.32 3.06-10.44 3.06-6.84 0-11.97-3.15t-7.92-8.82-2.79-13.23q0-7.47 2.7-12.96 2.79-5.49 7.83-8.55 5.13-3.15 11.79-3.15m4.32 12.78q-3.15 0-5.58 1.53-2.34 1.53-3.69 4.32-1.26 2.79-1.26 6.48t1.26 6.48q1.35 2.7 3.69 4.32 2.43 1.53 5.58 1.53t5.49-1.53q2.34-1.62 3.6-4.32 1.35-2.79 1.35-6.48t-1.35-6.48q-1.26-2.79-3.6-4.32t-5.49-1.53m10.44-30.33h16.02V86h-16.02zm59.177 38.25q.09-2.97-1.08-5.04-1.08-2.16-3.15-3.33t-4.77-1.17q-3.15 0-5.4 1.71-2.16 1.62-3.42 4.59-1.17 2.88-1.17 6.75 0 4.23 1.44 7.29t4.05 4.77q2.7 1.62 6.21 1.62 6.48 0 11.43-4.95l8.37 8.28q-3.69 4.05-9.09 6.3-5.31 2.25-12.15 2.25-7.92 0-13.77-3.06-5.76-3.06-8.91-8.64-3.06-5.58-3.06-12.96 0-7.56 3.15-13.14 3.15-5.67 8.91-8.73 5.76-3.15 13.32-3.15 8.55 0 14.13 3.6 5.67 3.51 8.28 10.08 2.7 6.57 2.16 15.39h-36.72v-8.46zm54.229 0q.09-2.97-1.08-5.04-1.08-2.16-3.15-3.33t-4.77-1.17q-3.15 0-5.4 1.71-2.16 1.62-3.42 4.59-1.17 2.88-1.17 6.75 0 4.23 1.44 7.29t4.05 4.77q2.7 1.62 6.21 1.62 6.48 0 11.43-4.95l8.37 8.28q-3.69 4.05-9.09 6.3-5.31 2.25-12.15 2.25-7.92 0-13.77-3.06-5.76-3.06-8.91-8.64-3.06-5.58-3.06-12.96 0-7.56 3.15-13.14 3.15-5.67 8.91-8.73 5.76-3.15 13.32-3.15 8.55 0 14.13 3.6 5.67 3.51 8.28 10.08 2.7 6.57 2.16 15.39h-36.72v-8.46zm54.498-20.61q6.84 0 11.88 3.15 5.13 3.06 7.92 8.73 2.88 5.58 2.88 13.23 0 7.29-2.79 12.87-2.7 5.58-7.74 8.64-4.95 3.06-11.79 3.06-6.12 0-10.62-2.97-4.41-3.06-6.84-8.55-2.34-5.58-2.34-13.14 0-7.74 2.34-13.32 2.34-5.67 6.66-8.64 4.41-3.06 10.44-3.06m-3.96 12.33q-2.97 0-5.4 1.62-2.34 1.53-3.69 4.32-1.26 2.7-1.26 6.39 0 3.6 1.26 6.48 1.35 2.79 3.69 4.32 2.43 1.53 5.4 1.53 3.15 0 5.49-1.53 2.43-1.62 3.69-4.41 1.35-2.79 1.35-6.39t-1.35-6.39q-1.26-2.79-3.69-4.32-2.34-1.62-5.49-1.62m-26.37-11.79h16.02v66.06h-16.02zm79.429 31.32q0 2.79 1.17 4.05t3.24 1.17q1.26 0 2.79-.45t3.24-1.17l3.06 11.07q-2.61 1.62-6.12 2.52-3.42.81-7.02.81-4.68 0-8.37-1.71-3.69-1.8-5.85-5.22-2.07-3.51-2.07-8.55v-45h15.93zm-22.68-29.07h35.28v10.44h-35.28zm75.467 11.52q-4.77-.54-8.37.81-3.51 1.35-5.49 4.14-1.89 2.7-1.89 6.57l-3.78-.72q0-7.92 2.34-13.59 2.43-5.67 6.84-8.64 4.41-3.06 10.35-3.06zM403.35 37.4h16.02V86h-16.02zm55.266 27.9q-3.42 0-5.13 1.26-1.62 1.17-1.62 3.78t1.71 4.14q1.71 1.44 4.86 1.44 2.43 0 4.41-.81 2.07-.81 3.42-2.25 1.44-1.53 1.89-3.42l2.25 7.11q-1.98 4.95-6.3 7.56t-10.62 2.61q-5.22 0-9-1.98-3.69-1.98-5.67-5.4t-1.98-7.83q0-6.93 4.77-10.8 4.86-3.87 13.86-3.96h14.22v8.55zm9.54-9.09q0-3.51-2.34-5.49t-6.93-1.98q-3.06 0-6.84.99t-7.74 2.97l-4.41-10.62q3.87-1.71 7.47-2.88 3.69-1.26 7.47-1.89t7.74-.63q10.17 0 15.66 4.68 5.58 4.59 5.67 12.96V86h-15.75zm44.873-19.44q6.21 0 10.62 3.06 4.41 2.97 6.84 8.55t2.43 13.14q0 7.65-2.34 13.32t-6.75 8.73q-4.32 3.06-10.44 3.06-6.84 0-11.97-3.15t-7.92-8.82-2.79-13.23q0-7.47 2.7-12.96 2.79-5.49 7.83-8.55 5.13-3.15 11.79-3.15m4.32 12.78q-3.15 0-5.58 1.53-2.34 1.53-3.69 4.32-1.26 2.79-1.26 6.48t1.26 6.48q1.35 2.7 3.69 4.32 2.43 1.53 5.58 1.53t5.49-1.53q2.34-1.62 3.6-4.32 1.35-2.79 1.35-6.48t-1.35-6.48q-1.26-2.79-3.6-4.32t-5.49-1.53m10.44-30.33h16.02V86h-16.02zm59.177 38.25q.09-2.97-1.08-5.04-1.08-2.16-3.15-3.33t-4.77-1.17q-3.15 0-5.4 1.71-2.16 1.62-3.42 4.59-1.17 2.88-1.17 6.75 0 4.23 1.44 7.29t4.05 4.77q2.7 1.62 6.21 1.62 6.48 0 11.43-4.95l8.37 8.28q-3.69 4.05-9.09 6.3-5.31 2.25-12.15 2.25-7.92 0-13.77-3.06-5.76-3.06-8.91-8.64-3.06-5.58-3.06-12.96 0-7.56 3.15-13.14 3.15-5.67 8.91-8.73 5.76-3.15 13.32-3.15 8.55 0 14.13 3.6 5.67 3.51 8.28 10.08 2.7 6.57 2.16 15.39h-36.72v-8.46z"/><style>@media (prefers-color-scheme:light){:root{filter:none}}@media (prefers-color-scheme:dark){:root{filter:invert(100%)}}</style></svg>